<svg width="137" height="53" viewBox="0 0 137 53" fill="none" xmlns="http://www.w3.org/2000/svg">
<path d="M0.278409 53L8.97159 0.636362H20.0426L16.4631 22.2415H38.9375L42.517 0.636362H53.5625L44.8693 53H33.8239L37.4034 31.3693H14.929L11.3494 53H0.278409ZM53.9972 53L62.6903 0.636362H83.6562C87.5085 0.636362 90.6278 1.20739 93.0142 2.34943C95.4176 3.49148 97.0966 5.0767 98.0511 7.10511C99.0057 9.11648 99.2614 11.4347 98.8182 14.0597C98.4602 16.1051 97.7358 17.8949 96.6449 19.429C95.571 20.9631 94.2415 22.2244 92.6562 23.2131C91.071 24.2017 89.3494 24.9006 87.4915 25.3097L87.3892 25.821C89.3665 25.9062 91.1477 26.4687 92.733 27.5085C94.3182 28.5312 95.5028 29.9801 96.2869 31.8551C97.071 33.7301 97.25 35.9545 96.8239 38.5284C96.3636 41.3068 95.2642 43.7869 93.5256 45.9688C91.7869 48.1335 89.4688 49.8466 86.571 51.108C83.6903 52.3693 80.2898 53 76.3693 53H53.9972ZM66.6023 43.9489H75.6278C78.696 43.9489 81.0398 43.3523 82.6591 42.1591C84.2784 40.9659 85.25 39.3892 85.5739 37.429C85.7955 35.9801 85.6506 34.7017 85.1392 33.5938C84.6449 32.4858 83.8011 31.6165 82.608 30.9858C81.4318 30.3551 79.9403 30.0398 78.1335 30.0398H68.8778L66.6023 43.9489ZM70.1562 22.5483H78.3636C79.8636 22.5483 81.2528 22.2841 82.5312 21.7557C83.8267 21.2102 84.892 20.4432 85.7273 19.4545C86.5795 18.4489 87.1165 17.2642 87.3381 15.9006C87.6449 13.9915 87.2188 12.4659 86.0597 11.3239C84.9176 10.1648 83.1278 9.58522 80.6903 9.58522H72.304L70.1562 22.5483ZM101.599 53L110.292 0.636362H121.363L114.204 43.8722H136.653L135.119 53H101.599Z" fill="#F44D27"/>
</svg>
